<?xml version="1.0" encoding="UTF-8" standalone="no"?>
<!-- Created with Inkscape (http://www.inkscape.org/) -->

<svg
   width="210mm"
   height="297mm"
   viewBox="0 0 210 297"
   version="1.1"
   id="svg1"
   xml:space="preserve"
   inkscape:version="1.3.2 (091e20e, 2023-11-25)"
   sodipodi:docname="gear_swoosh.svg"
   xmlns:inkscape="http://www.inkscape.org/namespaces/inkscape"
   xmlns:sodipodi="http://sodipodi.sourceforge.net/DTD/sodipodi-0.dtd"
   xmlns="http://www.w3.org/2000/svg"
   xmlns:svg="http://www.w3.org/2000/svg"><sodipodi:namedview
     id="namedview1"
     pagecolor="#ffffff"
     bordercolor="#000000"
     borderopacity="0.25"
     inkscape:showpageshadow="2"
     inkscape:pageopacity="0.0"
     inkscape:pagecheckerboard="0"
     inkscape:deskcolor="#d1d1d1"
     inkscape:document-units="mm"
     inkscape:zoom="1"
     inkscape:cx="339.5"
     inkscape:cy="752.5"
     inkscape:window-width="1440"
     inkscape:window-height="900"
     inkscape:window-x="0"
     inkscape:window-y="0"
     inkscape:window-maximized="0"
     inkscape:current-layer="layer1" /><defs
     id="defs1" /><g
     inkscape:label="Layer 1"
     inkscape:groupmode="layer"
     id="layer1"><g
       id="g1"
       transform="translate(-16.139583,-42.8625)"><path
         style="fill:#a1a3a2"
         d="m 29.173949,175.89035 c 0.402183,-0.0608 0.997496,-0.0592 1.322917,0.004 0.325421,0.0628 -0.0036,0.11256 -0.731242,0.11058 -0.727604,-0.002 -0.993858,-0.0534 -0.591675,-0.11419 z m 15.11862,-0.40545 c -0.504028,-0.59531 -0.504028,-0.59531 0.09128,-0.0913 0.559447,0.47366 0.715762,0.68659 0.504028,0.68659 -0.05021,0 -0.318097,-0.26789 -0.595312,-0.59531 z m -9.808542,-5.08159 c 0,-0.21188 0.101161,-0.32272 0.224802,-0.2463 0.123641,0.0764 0.156302,0.24977 0.07258,0.38523 -0.213948,0.34618 -0.297381,0.3072 -0.297382,-0.13893 z m -7.281554,-0.32467 c 0.190996,-0.0764 0.419199,-0.067 0.507118,0.0209 0.08792,0.0879 -0.06835,0.15045 -0.347266,0.13896 -0.308224,-0.0127 -0.370919,-0.0754 -0.159852,-0.15985 z m 39.422917,-0.26458 c 0.190996,-0.0764 0.419199,-0.067 0.507118,0.0209 0.08792,0.0879 -0.06835,0.15046 -0.347266,0.13897 -0.308224,-0.0127 -0.370919,-0.0754 -0.159852,-0.15985 z m -33.5725,-0.81145 c -0.641433,-0.72761 -0.641433,-0.72761 0.08617,-0.0862 0.400183,0.35279 0.727605,0.68021 0.727605,0.7276 0,0.20751 -0.21426,0.0386 -0.813776,-0.64143 z m 27.685995,0.38546 c 0.09936,-0.26093 0.247304,-0.40778 0.328766,-0.32632 0.08146,0.0815 1.68e-4,0.29496 -0.180654,0.47443 -0.261306,0.25937 -0.291697,0.22898 -0.148112,-0.14811 z m 74.083335,0 c 0.0994,-0.26093 0.2473,-0.40778 0.32876,-0.32632 0.0815,0.0815 1.7e-4,0.29496 -0.18065,0.47443 -0.26131,0.25937 -0.2917,0.22898 -0.14811,-0.14811 z m 7.40833,0 c 0.0994,-0.26093 0.24731,-0.40778 0.32877,-0.32632 0.0815,0.0815 1.7e-4,0.29496 -0.18065,0.47443 -0.26131,0.25937 -0.2917,0.22898 -0.14812,-0.14811 z m 1.8242,0.06 c -0.0959,-0.15521 -0.11766,-0.33893 -0.0483,-0.40829 0.0694,-0.0693 0.19661,0.0576 0.28278,0.28219 0.17891,0.46622 0.0264,0.54823 -0.23447,0.1261 z m -64.464777,-0.16314 c 0.190996,-0.0764 0.4192,-0.067 0.507118,0.0209 0.08792,0.0879 -0.06835,0.15045 -0.347265,0.13896 -0.308225,-0.0127 -0.370919,-0.0754 -0.159853,-0.15985 z m 15.527735,-0.34843 c 0.263389,-0.29104 0.53842,-0.52916 0.611181,-0.52916 0.07276,0 -0.08321,0.23812 -0.346598,0.52916 -0.263389,0.29104 -0.53842,0.52917 -0.611181,0.52917 -0.07276,0 0.08321,-0.23813 0.346598,-0.52917 z m 9.789582,0 c 0.26339,-0.29104 0.53842,-0.52916 0.61118,-0.52916 0.0728,0 -0.0832,0.23812 -0.3466,0.52916 -0.26338,0.29104 -0.53842,0.52917 -0.61118,0.52917 -0.0728,0 0.0832,-0.23813 0.3466,-0.52917 z m 57.08749,0.33931 c 0.40219,-0.0608 0.9975,-0.0592 1.32292,0.004 0.32542,0.0628 -0.004,0.11256 -0.73124,0.11057 -0.72761,-0.002 -0.99386,-0.0534 -0.59168,-0.11418 z m -46.35098,-0.49365 c 0.0127,-0.30822 0.0754,-0.37092 0.15986,-0.15985 0.0764,0.191 0.067,0.4192 -0.0209,0.50712 -0.0879,0.0879 -0.15045,-0.0684 -0.13897,-0.34727 z m 20.90209,0 c 0.0127,-0.30822 0.0754,-0.37092 0.15985,-0.15985 0.0764,0.191 0.067,0.4192 -0.0209,0.50712 -0.0879,0.0879 -0.15045,-0.0684 -0.13896,-0.34727 z m 28.45843,-0.24253 c -0.0838,-0.21828 -0.037,-0.39688 0.10398,-0.39688 0.14096,0 0.25628,0.1786 0.25628,0.39688 0,0.21828 -0.0468,0.39687 -0.10398,0.39687 -0.0572,0 -0.17252,-0.17859 -0.25628,-0.39687 z M 62.462554,168.25296 c 0.0127,-0.30823 0.07539,-0.37092 0.159852,-0.15986 0.07643,0.191 0.06703,0.4192 -0.02089,0.50712 -0.08792,0.0879 -0.150452,-0.0684 -0.138964,-0.34726 z m 21.674945,0.31902 c 0,-0.0549 0.20836,-0.2633 0.463021,-0.46302 0.419644,-0.3291 0.429003,-0.31975 0.0999,0.0999 -0.345644,0.44073 -0.562916,0.58089 -0.562916,0.36312 z M 68.791666,168.3074 c 0,-0.0549 0.208359,-0.2633 0.463021,-0.46302 0.419644,-0.32911 0.429002,-0.31975 0.09989,0.0999 -0.345644,0.44072 -0.562916,0.58088 -0.562916,0.36312 z m 91.566724,-0.31903 c 0.0127,-0.30822 0.0754,-0.37092 0.15985,-0.15985 0.0764,0.191 0.067,0.4192 -0.0209,0.50712 -0.0879,0.0879 -0.15045,-0.0684 -0.13896,-0.34727 z m -41.82937,-3.21909 c -3.0384,-3.10886 -3.0384,-3.10886 0.0705,-0.0705 2.88768,2.82224 3.22894,3.17932 3.03839,3.17932 -0.0388,0 -1.43774,-1.39898 -3.10885,-3.10885 z m 2.77623,0.92604 c -2.11046,-2.18282 -2.11046,-2.18282 0.0724,-0.0724 2.02733,1.96013 2.30344,2.25517 2.11046,2.25517 -0.0398,0 -1.02206,-0.98227 -2.18281,-2.18281 z m 59.14058,1.91823 c 0,-0.14552 0.12609,-0.26459 0.2802,-0.26459 0.15411,0 0.20662,0.11907 0.11668,0.26459 -0.0899,0.14552 -0.21603,0.26458 -0.2802,0.26458 -0.0642,0 -0.11668,-0.11906 -0.11668,-0.26458 z M 24.077082,167.24907 c 0,-0.0549 0.20836,-0.2633 0.463021,-0.46302 0.419644,-0.32911 0.429002,-0.31975 0.0999,0.0999 -0.345644,0.44073 -0.562916,0.58089 -0.562916,0.36313 z m 60.386385,-2.28136 c 0,-0.50932 0.05445,-0.71768 0.121,-0.46302 0.06655,0.25466 0.06655,0.67138 0,0.92604 -0.06655,0.25467 -0.121,0.0463 -0.121,-0.46302 z m 10.629102,0.19844 c -0.504028,-0.59531 -0.504028,-0.59531 0.09128,-0.0913 0.559447,0.47366 0.715761,0.68659 0.504028,0.68659 -0.05021,0 -0.318097,-0.26789 -0.595313,-0.59531 z m 9.789581,0 c -0.50403,-0.59531 -0.50403,-0.59531 0.0913,-0.0913 0.55944,0.47366 0.71576,0.68659 0.50403,0.68659 -0.0502,0 -0.3181,-0.26789 -0.59532,-0.59531 z m -28.88535,-0.7276 c 0,-0.50933 0.05445,-0.71769 0.121,-0.46302 0.06655,0.25466 0.06655,0.67138 0,0.92604 -0.06655,0.25466 -0.121,0.0463 -0.121,-0.46302 z m -5.55625,-0.26459 c 0,-0.50932 0.05445,-0.71768 0.121,-0.46302 0.06655,0.25466 0.06655,0.67138 0,0.92604 -0.06655,0.25467 -0.121,0.0463 -0.121,-0.46302 z m 75.47716,0 c -0.0899,-0.14552 -0.0445,-0.26458 0.10106,-0.26458 0.14552,0 0.33817,0.11906 0.42811,0.26458 0.0899,0.14552 0.0445,0.26459 -0.10107,0.26459 -0.14552,0 -0.33816,-0.11907 -0.4281,-0.26459 z m -53.313544,-0.0999 c 0,-0.0549 0.20836,-0.2633 0.463021,-0.46302 0.419644,-0.32911 0.429002,-0.31975 0.09989,0.0999 -0.345644,0.44073 -0.562916,0.58089 -0.562916,0.36313 z m 9.789584,0 c 0,-0.0549 0.20836,-0.2633 0.46302,-0.46302 0.41964,-0.32911 0.429,-0.31975 0.0999,0.0999 -0.34565,0.44073 -0.56292,0.58089 -0.56292,0.36313 z m 44.32901,-0.14641 c -0.0837,-0.13546 -0.0511,-0.30882 0.0726,-0.38523 0.12364,-0.0764 0.2248,0.0344 0.2248,0.2463 0,0.44613 -0.0834,0.48511 -0.29738,0.13893 z m -53.283067,-1.60578 c 0,-0.3638 0.06005,-0.51263 0.133452,-0.33073 0.0734,0.1819 0.0734,0.47956 0,0.66146 -0.0734,0.1819 -0.133452,0.0331 -0.133452,-0.33073 z m 9.789587,0 c 0,-0.3638 0.0601,-0.51263 0.13345,-0.33073 0.0734,0.1819 0.0734,0.47956 0,0.66146 -0.0734,0.1819 -0.13345,0.0331 -0.13345,-0.33073 z m -27.161572,-1.05833 c 0.263389,-0.29105 0.53842,-0.52917 0.611181,-0.52917 0.07276,0 -0.08321,0.23812 -0.346598,0.52917 -0.263389,0.29104 -0.53842,0.52916 -0.611181,0.52916 -0.07276,0 0.08321,-0.23812 0.346598,-0.52916 z m 0.661458,0.42927 c 0,-0.0549 0.208359,-0.2633 0.463021,-0.46302 0.419644,-0.32911 0.429002,-0.31975 0.09989,0.0999 -0.345644,0.44073 -0.562916,0.58089 -0.562916,0.36313 z m 6.316251,-0.36313 c -0.329107,-0.41964 -0.319749,-0.429 0.0999,-0.0999 0.440729,0.34564 0.580887,0.56291 0.363126,0.56291 -0.05494,0 -0.263302,-0.20836 -0.463021,-0.46302 z m 32.496603,-1.00055 c -0.4083,-0.3592 -0.63741,-0.65309 -0.50914,-0.65309 0.12826,0 0.51285,0.29765 0.85462,0.66145 0.79074,0.84171 0.61595,0.83748 -0.34548,-0.008 z m 7.63853,-0.0464 c -0.14358,-0.37708 -0.11319,-0.40747 0.14811,-0.14811 0.18083,0.17947 0.26212,0.39297 0.18066,0.47443 -0.0815,0.0815 -0.22941,-0.0654 -0.32877,-0.32632 z m 66.28201,0.0327 c 0.0127,-0.30823 0.0754,-0.37092 0.15985,-0.15986 0.0764,0.191 0.067,0.4192 -0.0209,0.50712 -0.0879,0.0879 -0.15045,-0.0684 -0.13896,-0.34726 z M 68.757917,160.00678 c -0.329107,-0.41965 -0.319749,-0.42901 0.09989,-0.0999 0.440729,0.34564 0.580887,0.56292 0.363126,0.56292 -0.05494,0 -0.263302,-0.20836 -0.463021,-0.46302 z m 1.33664,-0.52917 c -0.641433,-0.72761 -0.641433,-0.72761 0.08617,-0.0862 0.400183,0.35279 0.727605,0.68021 0.727605,0.7276 0,0.20751 -0.21426,0.0386 -0.813776,-0.64143 z m 113.688493,0.41461 c 0.0764,-0.12364 0.24977,-0.15631 0.38523,-0.0726 0.34618,0.21395 0.3072,0.29738 -0.13893,0.29738 -0.21188,0 -0.32272,-0.10116 -0.2463,-0.2248 z M 136.525,158.63333 c 0,-0.13693 0.1177,-0.32171 0.26155,-0.41062 0.14998,-0.0927 0.19434,0.0135 0.10399,0.24897 -0.1759,0.45837 -0.36554,0.54223 -0.36554,0.16165 z m 23.8125,0 c 0,-0.13693 0.1177,-0.32171 0.26155,-0.41062 0.14998,-0.0927 0.19434,0.0135 0.10399,0.24897 -0.1759,0.45837 -0.36554,0.54223 -0.36554,0.16165 z m -13.80794,-0.72552 c 0.19099,-0.0764 0.4192,-0.067 0.50712,0.0209 0.0879,0.0879 -0.0684,0.15046 -0.34727,0.13897 -0.30822,-0.0127 -0.37092,-0.0754 -0.15985,-0.15985 z M 28.881358,154.38438 c 0,-0.3638 0.06005,-0.51263 0.133453,-0.33073 0.0734,0.1819 0.0734,0.47956 0,0.66146 -0.0734,0.1819 -0.133453,0.0331 -0.133453,-0.33073 z m 13.650412,0.0893 c 0.181901,-0.0734 0.479557,-0.0734 0.661458,0 0.181901,0.0734 0.03307,0.13346 -0.330729,0.13346 -0.363802,0 -0.51263,-0.0601 -0.330729,-0.13346 z m -4.630209,-3.9759 c 0.254662,-0.0666 0.671381,-0.0666 0.926042,0 0.254662,0.0666 0.0463,0.121 -0.463021,0.121 -0.509323,0 -0.717682,-0.0545 -0.463021,-0.121 z m 9.723438,-1.02386 c 0,-0.37239 0.107885,-0.61039 0.239744,-0.5289 0.13186,0.0815 0.177504,0.38618 0.101433,0.67707 -0.19038,0.72802 -0.341177,0.66253 -0.341177,-0.14817 z"
         id="path7" /><path
         style="fill:#71ab8f"
         d="m 26.408723,170.07864 c 0.190996,-0.0764 0.419199,-0.067 0.507118,0.0209 0.08792,0.0879 -0.06835,0.15045 -0.347266,0.13896 -0.308224,-0.0127 -0.370919,-0.0754 -0.159852,-0.15985 z m 22.316386,-11.72551 c 0,-0.3638 0.06005,-0.51263 0.133452,-0.33073 0.0734,0.1819 0.0734,0.47956 0,0.66146 -0.0734,0.1819 -0.133452,0.0331 -0.133452,-0.33073 z m -1.079222,-7.82726 c 0.0127,-0.30822 0.07539,-0.37092 0.159853,-0.15985 0.07643,0.191 0.06703,0.4192 -0.02089,0.50712 -0.08792,0.0879 -0.150452,-0.0684 -0.138964,-0.34727 z"
         id="path6" /><path
         style="fill:#6a6a6a"
         d="m 25.333853,170.08415 c 0.181901,-0.0734 0.479557,-0.0734 0.661458,0 0.181901,0.0734 0.03307,0.13345 -0.330729,0.13345 -0.363802,0 -0.51263,-0.0601 -0.330729,-0.13345 z m 63.78112,-0.27009 c 0.190997,-0.0764 0.4192,-0.067 0.507119,0.0209 0.08792,0.0879 -0.06835,0.15046 -0.347266,0.13897 -0.308225,-0.0127 -0.370919,-0.0754 -0.159853,-0.15985 z m 3.356902,-0.0839 c -0.431379,-0.18537 -0.446488,-0.23082 -0.08176,-0.24598 0.246073,-0.0102 0.52099,0.10046 0.610927,0.24598 0.18803,0.30424 0.178836,0.30424 -0.529167,0 z m 6.432682,0.0839 c 0.190996,-0.0764 0.419199,-0.067 0.507118,0.0209 0.08792,0.0879 -0.06835,0.15046 -0.347266,0.13897 -0.308224,-0.0127 -0.370919,-0.0754 -0.159852,-0.15985 z m 3.356903,-0.0839 c -0.43138,-0.18537 -0.44649,-0.23082 -0.0818,-0.24598 0.24607,-0.0102 0.52099,0.10046 0.61092,0.24598 0.18803,0.30424 0.17884,0.30424 -0.52916,0 z m 7.08264,0.0812 c 0.25743,-0.0671 0.61462,-0.0627 0.79375,0.01 0.17913,0.0725 -0.0315,0.12736 -0.46806,0.12197 -0.43656,-0.005 -0.58312,-0.0647 -0.32569,-0.13178 z m 5.3764,-0.043 c -0.0769,-0.1245 0.15415,-0.17015 0.51355,-0.10144 0.3594,0.0687 0.65345,0.17056 0.65345,0.22636 0,0.20472 -1.03152,0.0943 -1.167,-0.12492 z m 20.81735,0.043 c 0.25743,-0.0671 0.61462,-0.0627 0.79375,0.01 0.17913,0.0725 -0.0315,0.12736 -0.46806,0.12197 -0.43656,-0.005 -0.58312,-0.0647 -0.32569,-0.13178 z m 7.40833,0 c 0.25743,-0.0671 0.61462,-0.0627 0.79375,0.01 0.17913,0.0725 -0.0315,0.12736 -0.46805,0.12197 -0.43657,-0.005 -0.58313,-0.0647 -0.3257,-0.13178 z m 24.48546,0.003 c 0.191,-0.0764 0.4192,-0.067 0.50712,0.0209 0.0879,0.0879 -0.0684,0.15046 -0.34727,0.13897 -0.30822,-0.0127 -0.37092,-0.0754 -0.15985,-0.15985 z m 6.87917,0 c 0.19099,-0.0764 0.4192,-0.067 0.50712,0.0209 0.0879,0.0879 -0.0683,0.15046 -0.34727,0.13897 -0.30822,-0.0127 -0.37092,-0.0754 -0.15985,-0.15985 z M 69.982291,168.14271 c 0.263389,-0.29104 0.53842,-0.52916 0.611181,-0.52916 0.07276,0 -0.08321,0.23812 -0.346598,0.52916 -0.263389,0.29104 -0.53842,0.52917 -0.611181,0.52917 -0.07276,0 0.08321,-0.23813 0.346598,-0.52917 z m 20.619624,-1.52048 c 0.0169,-1.93906 0.0507,-2.05332 0.617244,-2.0866 0.47697,-0.028 0.492688,-0.011 0.07697,0.0831 -0.451547,0.10229 -0.535261,0.38528 -0.617244,2.0866 -0.09485,1.96826 -0.09485,1.96826 -0.07697,-0.0831 z m 9.789585,0 c 0.0169,-1.93906 0.0507,-2.05332 0.61724,-2.0866 0.47697,-0.028 0.49269,-0.011 0.077,0.0831 -0.45155,0.10229 -0.53526,0.38528 -0.61724,2.0866 -0.0948,1.96826 -0.0948,1.96826 -0.077,-0.0831 z m 23.24098,0.19757 c 0,-0.65485 0.0516,-0.92274 0.11466,-0.59532 0.0631,0.32743 0.0631,0.86321 0,1.19063 -0.0631,0.32742 -0.11466,0.0595 -0.11466,-0.59531 z m -92.39076,-1.47726 c 0.0127,-0.30823 0.07539,-0.37092 0.159853,-0.15985 0.07643,0.19099 0.06703,0.4192 -0.02089,0.50711 -0.08792,0.0879 -0.150453,-0.0683 -0.138965,-0.34726 z m 0.02089,-1.16858 c 0,-0.3638 0.06005,-0.51263 0.133452,-0.33073 0.0734,0.1819 0.0734,0.47956 0,0.66146 -0.0734,0.1819 -0.133452,0.0331 -0.133452,-0.33073 z m 59.315592,-1.98437 c 9.61e-4,-1.16417 0.04748,-1.60751 0.10337,-0.9852 0.05589,0.62231 0.0551,1.57481 -0.0017,2.11667 -0.05685,0.54186 -0.102583,0.0327 -0.101622,-1.13147 z m 9.789578,0 c 9.7e-4,-1.16417 0.0475,-1.60751 0.10337,-0.9852 0.0559,0.62231 0.0551,1.57481 -0.002,2.11667 -0.0569,0.54186 -0.10259,0.0327 -0.10163,-1.13147 z m 15.05194,0.39687 c 0,-0.50932 0.0545,-0.71768 0.121,-0.46302 0.0666,0.25466 0.0666,0.67138 0,0.92604 -0.0665,0.25467 -0.121,0.0463 -0.121,-0.46302 z m 1.77645,-0.7276 c -0.9118,-0.99219 -0.9118,-0.99219 0.0804,-0.0804 0.54571,0.50149 0.99219,0.94797 0.99219,0.99219 0,0.20204 -0.22389,0.0117 -1.07258,-0.9118 z m 30.74769,-0.33073 c 0,-0.3638 0.06,-0.51263 0.13345,-0.33073 0.0734,0.1819 0.0734,0.47956 0,0.66146 -0.0734,0.1819 -0.13345,0.0331 -0.13345,-0.33073 z m -56.728755,-1.49815 c 0.181901,-0.0734 0.479557,-0.0734 0.661458,0 0.181901,0.0734 0.03307,0.13346 -0.330729,0.13346 -0.363802,0 -0.51263,-0.0601 -0.330729,-0.13346 z m 9.789585,0 c 0.1819,-0.0734 0.47955,-0.0734 0.66146,0 0.1819,0.0734 0.0331,0.13346 -0.33073,0.13346 -0.36381,0 -0.51263,-0.0601 -0.33073,-0.13346 z m 43.67278,-1.85759 c 0.191,-0.0764 0.4192,-0.067 0.50712,0.0209 0.0879,0.0879 -0.0683,0.15045 -0.34726,0.13896 -0.30823,-0.0127 -0.37092,-0.0754 -0.15986,-0.15985 z m -83.227991,-0.26623 c 0.254662,-0.0666 0.671381,-0.0666 0.926042,0 0.254662,0.0666 0.0463,0.121 -0.463021,0.121 -0.509323,0 -0.717682,-0.0545 -0.463021,-0.121 z m 4.382162,0.002 c 0.190996,-0.0764 0.419199,-0.067 0.507118,0.0209 0.08792,0.0879 -0.06835,0.15046 -0.347266,0.13897 -0.308224,-0.0127 -0.370919,-0.0754 -0.159852,-0.15985 z m 69.706209,-0.003 c 0.25743,-0.0671 0.61462,-0.0627 0.79375,0.01 0.17913,0.0725 -0.0315,0.12736 -0.46806,0.12197 -0.43656,-0.005 -0.58312,-0.0647 -0.32569,-0.13178 z m 7.4033,9.7e-4 c 0.25466,-0.0666 0.67138,-0.0666 0.92604,0 0.25466,0.0666 0.0463,0.121 -0.46302,0.121 -0.50933,0 -0.71769,-0.0545 -0.46302,-0.121 z m 16.4092,-9.7e-4 c 0.25743,-0.0671 0.61462,-0.0627 0.79375,0.01 0.17913,0.0725 -0.0315,0.12736 -0.46806,0.12197 -0.43656,-0.005 -0.58312,-0.0647 -0.32569,-0.13178 z M 31.716251,153.12758 c -0.329108,-0.41964 -0.319749,-0.429 0.0999,-0.0999 0.254661,0.19972 0.463021,0.40808 0.463021,0.46303 0,0.21776 -0.217272,0.0776 -0.562916,-0.36313 z"
         id="path5" /><path
         style="fill:#408d67"
         d="m 38.579556,178.54531 c 0.190996,-0.0764 0.419199,-0.067 0.507118,0.0209 0.08792,0.0879 -0.06835,0.15046 -0.347265,0.13897 -0.308225,-0.0127 -0.37092,-0.0754 -0.159853,-0.15985 z m -14.56862,-2.90491 c 0.181901,-0.0734 0.479558,-0.0734 0.661459,0 0.181901,0.0734 0.03307,0.13345 -0.33073,0.13345 -0.363802,0 -0.51263,-0.0601 -0.330729,-0.13345 z m 23.878646,-4.95175 c 0,-0.0549 0.20836,-0.2633 0.463021,-0.46302 0.419644,-0.32911 0.429003,-0.31975 0.09989,0.0999 -0.345644,0.44072 -0.562916,0.58088 -0.562916,0.36312 z m 2.116667,-6.87917 c 0,-0.0549 0.208359,-0.2633 0.463021,-0.46302 0.419644,-0.3291 0.429002,-0.31975 0.09989,0.0999 -0.345644,0.44073 -0.562916,0.58089 -0.562916,0.36312 z m -1.247242,-7.17614 c 0.002,-0.72761 0.05337,-0.99386 0.114185,-0.59168 0.06082,0.40219 0.05919,0.9975 -0.0036,1.32292 -0.0628,0.32542 -0.11256,-0.004 -0.110574,-0.73124 z"
         id="path4" /><path
         style="fill:#006736"
         d="m 37.085273,178.38171 c -0.154265,-0.18587 -0.397015,-0.85661 -0.539444,-1.49051 -0.288373,-1.28345 -0.7,-1.68674 -1.488538,-1.45836 -1.009903,0.29248 -9.268204,0.42372 -10.715626,0.17028 -1.455208,-0.2548 -1.455208,-0.2548 -0.306145,-0.28573 3.388977,-0.0912 9.404979,-1.89171 12.536002,-3.75182 6.230757,-3.70163 9.891135,-10.03229 11.081497,-19.16557 0.344838,-2.64583 0.344838,-2.64583 0.67097,-0.66145 0.179373,1.0914 0.335428,3.11547 0.34679,4.49791 0.01136,1.38245 0.125641,2.67934 0.253957,2.88197 0.175498,0.27715 0.565814,0.32432 1.575402,0.19039 1.140563,-0.1513 1.422775,-0.0974 1.879315,0.35918 0.802228,0.80223 0.701025,1.91385 -0.223984,2.46027 -1.364661,0.80613 -2.413803,1.96119 -2.413803,2.65749 0,0.7397 1.02365,1.73628 2.346098,2.28406 0.942687,0.39047 1.046525,0.94292 0.40897,2.17581 -0.403035,0.77939 -0.474895,0.80676 -1.785937,0.68044 -1.692564,-0.16309 -2.25476,0.0442 -3.046011,1.12305 -0.621671,0.84764 -0.621671,0.84764 -0.04638,2.42542 0.632924,1.73585 0.543775,2.04971 -0.776057,2.73223 -0.759684,0.39284 -1.165338,0.25696 -2.478794,-0.83034 -0.870805,-0.72087 -2.408779,-0.82748 -3.266872,-0.22644 -0.332443,0.23285 -0.690311,0.93319 -0.879207,1.7206 -0.17521,0.73036 -0.443426,1.40509 -0.596036,1.49941 -0.55117,0.34064 -2.256642,0.34852 -2.536165,0.0117 z"
         id="path3" /><path
         style="fill:#313133"
         d="m 29.529526,172.22446 c 0.130827,-0.52126 -9.95e-4,-0.85489 -0.574149,-1.45313 -0.676975,-0.70661 -0.902449,-0.77653 -2.504076,-0.77653 -1.629368,0 -1.782922,-0.0501 -2.067166,-0.67391 -0.493306,-1.08269 -0.366988,-1.88638 0.390087,-2.48189 0.383427,-0.3016 0.841223,-0.54837 1.017326,-0.54837 0.599838,0 1.195951,-0.96538 1.195951,-1.9368 0,-0.89872 -0.105672,-1.02873 -1.455209,-1.79036 -1.308406,-0.73842 -1.455208,-0.9102 -1.455208,-1.70285 0,-1.31821 0.978303,-1.99421 2.606882,-1.80133 1.095949,0.1298 1.356862,0.0576 2.123286,-0.58726 0.771567,-0.64923 0.855845,-0.84624 0.720354,-1.68385 -0.515486,-3.18675 -0.51873,-3.1008 0.134275,-3.55818 0.878452,-0.61529 1.411921,-0.54295 2.659275,0.36063 2.000608,1.44923 3.560561,0.93408 4.40654,-1.45521 0.457301,-1.29155 0.496032,-1.3249 1.633444,-1.4068 0.96292,-0.0693 1.246862,0.0225 1.636691,0.52917 0.259409,0.33718 0.474301,0.81581 0.477537,1.06362 0.01047,0.80154 0.577348,1.73272 1.238134,2.03379 0.984764,0.44869 1.631084,0.3566 2.580689,-0.3677 1.077937,-0.82218 1.214143,-0.82363 1.214143,-0.0129 0,1.28332 -1.471375,6.23061 -1.853046,6.23061 -0.122661,0 -0.5787,-0.29928 -1.013419,-0.66507 -2.453868,-2.0648 -6.401538,-1.92866 -9.018063,0.31099 -1.604528,1.37341 -2.251107,2.76704 -2.251107,4.852 0,2.03962 0.676715,3.55176 2.09645,4.68457 0.509668,0.40666 0.926673,0.87759 0.926677,1.04651 9e-6,0.32327 -1.314877,1.01788 -3.642532,1.92421 -1.393581,0.54263 -1.393581,0.54263 -1.223766,-0.13396 z"
         id="path2" /><path
         style="fill:#000000"
         d="m 61.251041,169.85993 c -0.16767,-0.0819 -0.236483,-2.18713 -0.187867,-5.74765 0.06546,-4.79412 0.01742,-5.66186 -0.327418,-5.91401 -0.567265,-0.41479 5.676906,-0.2906 7.26216,0.14444 1.702176,0.46713 3.294527,2.18434 3.676324,3.9646 0.64103,2.98902 -0.825525,5.90439 -3.544032,7.04521 -1.016781,0.42669 -6.253239,0.81293 -6.879167,0.50741 z m 6.732405,-0.91609 c 1.90007,-0.96934 2.853778,-2.95272 2.571149,-5.34709 -0.399798,-3.38702 -2.677392,-5.24362 -6.432619,-5.24362 -1.68031,0 -1.68031,0 -1.68031,5.27852 0,6.11599 -0.14154,5.81311 2.72252,5.82593 1.278391,0.006 2.091438,-0.14243 2.81926,-0.51374 z m 10.75372,0.76496 c -4.688366,-1.14441 -5.412466,-7.08052 -1.132776,-9.28642 2.271179,-1.17064 6.05607,-0.45872 7.397247,1.39138 1.683907,2.32289 0.738732,6.02964 -1.877863,7.36453 -1.247333,0.63634 -3.056607,0.85515 -4.386608,0.53051 z m 3.812833,-0.7066 c 1.390019,-0.69439 2.190592,-2.41634 2.028803,-4.36373 -0.237317,-2.8565 -1.797285,-4.43399 -4.383034,-4.43227 -2.434863,0.002 -3.840255,1.17181 -4.153684,3.45852 -0.551228,4.02165 3.117967,7.03095 6.507915,5.33748 z m 7.011459,0.85577 c -0.166332,-0.0799 -0.235613,-1.91175 -0.186568,-4.9331 0.06028,-3.71328 1.18e-4,-4.85546 -0.264583,-5.02338 -0.501559,-0.31818 2.644672,-0.27463 3.824164,0.0529 1.765303,0.49025 2.144281,2.27162 0.799429,3.75766 -0.231514,0.25582 -0.372055,0.49416 -0.312313,0.52965 0.05974,0.0355 0.465808,0.24675 0.902371,0.46946 0.436562,0.22272 1.021767,0.82717 1.300455,1.34324 0.499218,0.92443 0.499218,0.95363 0,1.97631 -0.290761,0.59564 -0.842764,1.19756 -1.295256,1.41239 -0.769862,0.36551 -4.241414,0.66757 -4.767699,0.41484 z m 4.696354,-0.85261 c 0.308524,-0.27686 0.463021,-0.80588 0.463021,-1.58547 0,-0.92878 -0.152812,-1.32278 -0.741276,-1.91124 -0.735266,-0.73527 -2.647615,-1.29618 -3.217764,-0.94381 -0.150862,0.0932 -0.274293,1.03271 -0.274293,2.08771 0,2.57023 0.513159,3.19745 2.38125,2.91053 0.509323,-0.0782 1.134401,-0.3292 1.389062,-0.55772 z m -1.00719,-5.41944 c 0.652875,-0.93211 0.513041,-1.99733 -0.379339,-2.88971 -0.57209,-0.57209 -0.993426,-0.76796 -1.521354,-0.70725 -0.719349,0.0827 -0.73128,0.11426 -0.807413,2.13448 -0.07728,2.05052 -0.07728,2.05052 1.109476,2.05052 0.926419,0 1.277104,-0.12899 1.59863,-0.58804 z m 6.100419,6.27205 c -0.166332,-0.0799 -0.235612,-1.91175 -0.186567,-4.9331 0.06028,-3.71328 1.17e-4,-4.85546 -0.264584,-5.02338 -0.501559,-0.31818 2.64467,-0.27463 3.82416,0.0529 1.76531,0.49025 2.14429,2.27162 0.79943,3.75766 -0.23151,0.25582 -0.37205,0.49416 -0.31231,0.52965 0.0597,0.0355 0.46581,0.24675 0.90237,0.46946 0.43656,0.22272 1.02177,0.82717 1.30046,1.34324 0.49921,0.92443 0.49921,0.95363 0,1.97631 -0.29076,0.59564 -0.84277,1.19756 -1.29526,1.41239 -0.76986,0.36551 -4.241414,0.66757 -4.767699,0.41484 z m 4.696359,-0.85261 c 0.30852,-0.27686 0.46302,-0.80588 0.46302,-1.58547 0,-0.92878 -0.15282,-1.32278 -0.74128,-1.91124 -0.73527,-0.73527 -2.64762,-1.29618 -3.21776,-0.94381 -0.15087,0.0932 -0.2743,1.03271 -0.2743,2.08771 0,2.57023 0.51316,3.19745 2.38125,2.91053 0.50933,-0.0782 1.1344,-0.3292 1.38907,-0.55772 z m -1.00719,-5.41944 c 0.65287,-0.93211 0.51304,-1.99733 -0.37934,-2.88971 -0.57209,-0.57209 -0.99343,-0.76796 -1.52136,-0.70725 -0.71935,0.0827 -0.73128,0.11426 -0.80741,2.13448 -0.0773,2.05052 -0.0773,2.05052 1.10948,2.05052 0.92641,0 1.2771,-0.12899 1.59863,-0.58804 z m 5.71713,6.02523 c 0.39949,-0.40006 0.32435,-9.59682 -0.0797,-9.75988 -0.1819,-0.0734 0.26459,-0.13345 0.99219,-0.13345 0.72761,0 1.17409,0.0601 0.99219,0.13345 -0.24771,0.1 -0.33073,1.35169 -0.33073,4.9868 0,4.40856 0.0424,4.86231 0.46302,4.95122 0.25466,0.0538 -0.15594,0.0923 -0.91245,0.0855 -0.86847,-0.008 -1.28296,-0.10498 -1.12448,-0.26368 z m 5.8079,0.16316 c 0.16282,-0.0544 0.26393,-1.96327 0.26393,-4.98299 0,-3.05802 0.0966,-4.86169 0.25754,-4.80659 0.14165,0.0485 2.09681,1.84436 4.34481,3.9908 2.24799,2.14643 4.14962,3.9026 4.22585,3.9026 0.0762,0 0.0716,-1.69664 -0.0102,-3.77031 -0.11784,-2.98684 -0.23529,-3.83904 -0.56522,-4.10104 -0.34925,-0.27736 -0.22682,-0.33008 0.75859,-0.32668 0.6646,0.002 1.034,0.0936 0.85035,0.21032 -0.23349,0.14833 -0.34496,1.61487 -0.39687,5.22147 -0.0722,5.0152 -0.0722,5.0152 -4.37515,0.8074 -2.36663,-2.3143 -4.34385,-4.15976 -4.39384,-4.10105 -0.05,0.0587 -0.0328,1.813 0.0381,3.8984 0.12039,3.53967 0.16557,3.80518 0.67993,3.99546 0.38032,0.14068 0.16492,0.19554 -0.69539,0.17711 -0.68551,-0.0147 -1.12761,-0.0664 -0.98245,-0.1149 z m 20.25384,-0.12064 c 0.57816,-0.32355 0.56687,-11.17135 -0.012,-11.49528 -0.24921,-0.13946 0.14067,-0.22103 1.05642,-0.22103 0.91576,0 1.30563,0.0816 1.05643,0.22103 -0.33066,0.18505 -0.39497,1.12491 -0.39497,5.77266 0,5.47364 0.008,5.55465 0.5805,5.76637 0.39715,0.14692 0.0672,0.20777 -1.04446,0.19267 -0.97882,-0.0133 -1.47267,-0.10731 -1.24196,-0.23642 z m 7.40834,0 c 0.59546,-0.33323 0.56479,-11.17251 -0.0326,-11.5068 -0.65632,-0.3673 4.49728,-0.18532 5.40549,0.19087 0.98543,0.40818 1.70995,1.81951 1.46282,2.8495 -0.30989,1.29154 -0.88273,2.17226 -1.68159,2.58537 -1.13216,0.58546 -1.1825,0.49711 -0.21127,-0.37083 0.75172,-0.6718 0.86072,-0.93175 0.83834,-1.99944 -0.0324,-1.54333 -0.72849,-2.52787 -2.1403,-3.02701 -1.95434,-0.69095 -1.93502,-0.74621 -1.93502,5.53427 0,5.49573 0.008,5.57606 0.58051,5.78782 0.39714,0.14692 0.0672,0.20777 -1.04446,0.19267 -0.97883,-0.0133 -1.47267,-0.10731 -1.24196,-0.23642 z m 16.36599,0.0214 c 0.61955,-0.34671 0.63634,-11.17519 0.0179,-11.52131 -0.25961,-0.14528 0.11043,-0.22067 1.03848,-0.21158 0.86503,0.008 1.29097,0.0988 1.06477,0.2257 -0.58623,0.32899 -0.55076,10.29252 0.0387,10.88202 0.63846,0.63845 3.14002,0.56415 3.81756,-0.1134 0.50616,-0.50616 0.52917,-0.50757 0.52917,-0.0324 0,0.9523 -0.61444,1.12248 -3.83934,1.06332 -1.97333,-0.0362 -2.93635,-0.14176 -2.66725,-0.29236 z m 9.21857,0.13304 c -0.63217,-0.12176 -0.73973,-0.34306 -0.36577,-0.75254 0.12626,-0.13825 1.03294,-2.31528 2.01486,-4.83786 0.98192,-2.52257 1.87371,-4.4871 1.98175,-4.36562 0.10804,0.12148 1.0065,2.22163 1.99656,4.667 1.21287,2.99566 2.01364,4.61408 2.4546,4.96094 0.56994,0.44831 0.59005,0.51434 0.15576,0.51119 -1.26857,-0.009 -1.63607,-0.32246 -2.35065,-2.0038 -0.72113,-1.69675 -0.72113,-1.69675 -2.53989,-1.69675 -1.81876,0 -1.81876,0 -2.25217,0.99219 -0.23838,0.5457 -0.44833,1.37879 -0.46657,1.8513 -0.0182,0.47252 -0.0332,0.84325 -0.0332,0.82387 0,-0.0194 -0.26789,-0.0868 -0.59531,-0.14992 z m 4.2659,-5.96484 c -0.37601,-1.05502 -0.77694,-2.01811 -0.89095,-2.14018 -0.11402,-0.12208 -0.47608,0.5923 -0.80458,1.5875 -0.3285,0.9952 -0.65213,1.95828 -0.71916,2.14018 -0.0891,0.24171 0.31152,0.33073 1.48823,0.33073 1.61012,0 1.61012,0 0.92646,-1.91823 z m 6.63211,1.45521 c -0.94889,-2.99685 -1.68045,-4.86391 -2.02156,-5.15937 -0.51931,-0.44982 -0.49411,-0.46291 0.88382,-0.45897 0.90439,0.003 1.2871,0.0872 1.05611,0.23354 -0.29579,0.18738 -0.15433,0.94098 0.77088,4.10663 0.62323,2.13242 1.22515,3.7835 1.3376,3.66906 0.11245,-0.11444 0.85121,-1.85136 1.6417,-3.85982 0.79049,-2.00846 1.54221,-3.64313 1.6705,-3.63261 0.12829,0.0105 0.87419,1.75106 1.65755,3.86786 0.78336,2.1168 1.51795,3.75148 1.63243,3.63261 0.11447,-0.11886 0.71993,-1.85989 1.34547,-3.86895 0.9676,-3.10766 1.07936,-3.68951 0.74882,-3.89855 -0.27492,-0.17388 -0.0598,-0.24691 0.73596,-0.24977 1.08295,-0.004 1.10689,0.0135 0.64809,0.47233 -0.26201,0.26202 -1.15876,2.43491 -1.99278,4.82865 -0.83402,2.39374 -1.61411,4.50945 -1.73353,4.70157 -0.14179,0.22811 -0.74332,-1.05723 -1.73353,-3.70416 -0.83402,-2.22942 -1.55118,-4.08831 -1.59368,-4.13087 -0.0425,-0.0426 -0.81921,1.77315 -1.726,4.0349 -0.9068,2.26175 -1.69195,4.11228 -1.74479,4.11228 -0.0528,0 -0.76521,-2.11336 -1.58306,-4.69636 z m -33.78447,-1.03512 c 0.1819,-0.0734 0.47956,-0.0734 0.66146,0 0.1819,0.0734 0.0331,0.13345 -0.33073,0.13345 -0.3638,0 -0.51263,-0.06 -0.33073,-0.13345 z"
         id="path1" /></g></g></svg>
