<?xml version="1.0" encoding="UTF-8" standalone="no"?>
<svg width="240" height="60" viewBox="0 0 240 60" fill="none" xmlns="http://www.w3.org/2000/svg">
  <g>
    <!-- Gear -->
    <path d="M30 5C18.954 5 10 13.954 10 25s8.954 20 20 20 20-8.954 20-20S41.046 5 30 5z" stroke="#333333" stroke-width="1.5" fill="none"/>
    
    <!-- Gear teeth -->
    <path d="M30 0c-1.2 0-2.2 1-2.2 2.2v3.3c-1.5 0.3-2.9 0.7-4.2 1.4l-2.4-2.4c-0.9-0.9-2.3-0.9-3.1 0l-4.6 4.6c-0.9 0.9-0.9 2.3 0 3.1l2.4 2.4c-0.7 1.3-1.1 2.7-1.4 4.2H11c-1.2 0-2.2 1-2.2 2.2v6.5c0 1.2 1 2.2 2.2 2.2h3.3c0.3 1.5 0.7 2.9 1.4 4.2l-2.4 2.4c-0.9 0.9-0.9 2.3 0 3.1l4.6 4.6c0.9 0.9 2.3 0.9 3.1 0l2.4-2.4c1.3 0.7 2.7 1.1 4.2 1.4v3.3c0 1.2 1 2.2 2.2 2.2h6.5c1.2 0 2.2-1 2.2-2.2v-3.3c1.5-0.3 2.9-0.7 4.2-1.4l2.4 2.4c0.9 0.9 2.3 0.9 3.1 0l4.6-4.6c0.9-0.9 0.9-2.3 0-3.1l-2.4-2.4c0.7-1.3 1.1-2.7 1.4-4.2h3.3c1.2 0 2.2-1 2.2-2.2v-6.5c0-1.2-1-2.2-2.2-2.2h-3.3c-0.3-1.5-0.7-2.9-1.4-4.2l2.4-2.4c0.9-0.9 0.9-2.3 0-3.1L43 4.5c-0.9-0.9-2.3-0.9-3.1 0l-2.4 2.4c-1.3-0.7-2.7-1.1-4.2-1.4V2.2c0-1.2-1-2.2-2.2-2.2H30z" fill="#333333"/>
    
    <!-- Left half black, right half green -->
    <path d="M30 10c-8.284 0-15 6.716-15 15s6.716 15 15 15V10z" fill="#333333"/>
    <path d="M30 10v30c8.284 0 15-6.716 15-15S38.284 10 30 10z" fill="#00853E"/>
    
    <!-- Center circle -->
    <circle cx="30" cy="25" r="8" fill="white"/>
  </g>
  
  <!-- "DOBBIN IP LAW" text -->
  <text x="60" y="30" font-family="Times New Roman, serif" font-size="18" font-weight="bold" letter-spacing="1" fill="#000000">DOBBIN IP LAW</text>
</svg>
