<?xml version="1.0" encoding="UTF-8" standalone="no"?>
<!-- Created with Inkscape (http://www.inkscape.org/) -->

<svg
   width="31"
   height="31"
   viewBox="0 0 31 31"
   version="1.1"
   id="svg1"
   xmlns="http://www.w3.org/2000/svg"
   xmlns:svg="http://www.w3.org/2000/svg">
  <g
     id="layer1">
    <path
       style="fill:#006736"
       d="m 14.40583,28.851396 c -0.154265,-0.18587 -0.397015,-0.85661 -0.539444,-1.49051 -0.288373,-1.28345 -0.7,-1.68674 -1.488538,-1.45836 -1.009903,0.29248 -9.2682037,0.42372 -10.7156257,0.17028 -1.45520797,-0.2548 -1.45520797,-0.2548 -0.306145,-0.28573 3.388977,-0.0912 9.4049787,-1.89171 12.5360017,-3.751817 6.230757,-3.70163 9.891135,-10.03229 11.081497,-19.1655694 0.344838,-2.64582997 0.344838,-2.64582997 0.67097,-0.66145 0.179373,1.0914 0.335428,3.11547 0.34679,4.4979097 0.01136,1.38245 0.125641,2.67934 0.253957,2.88197 0.175498,0.27715 0.565814,0.32432 1.575402,0.19039 1.140563,-0.1513 1.422775,-0.0974 1.879315,0.3591797 0.802228,0.80223 0.701025,1.91385 -0.223984,2.46027 -1.364661,0.80613 -2.413803,1.96119 -2.413803,2.65749 0,0.7397 1.02365,1.73628 2.346098,2.28406 0.942687,0.39047 1.046525,0.94292 0.40897,2.17581 -0.403035,0.77939 -0.474895,0.80676 -1.785937,0.68044 -1.692564,-0.16309 -2.25476,0.0442 -3.046011,1.12305 -0.621671,0.84764 -0.621671,0.84764 -0.04638,2.425417 0.632924,1.73585 0.543775,2.04971 -0.776057,2.73223 -0.759684,0.39284 -1.165338,0.25696 -2.478794,-0.83034 -0.870805,-0.72087 -2.408779,-0.82748 -3.266872,-0.22644 -0.332443,0.23285 -0.690311,0.93319 -0.879207,1.7206 -0.17521,0.73036 -0.443426,1.40509 -0.596036,1.49941 -0.55117,0.34064 -2.256642,0.34852 -2.536165,0.0117 z"
       id="path3" />
    <path
       style="fill:#313133"
       d="m 6.8500833,22.694149 c 0.130827,-0.52126 -9.95e-4,-0.85489 -0.574149,-1.45313 -0.676975,-0.70661 -0.9024487,-0.77653 -2.504076,-0.77653 -1.629368,0 -1.782922,-0.0501 -2.067166,-0.67391 -0.493306,-1.08269 -0.366988,-1.88638 0.390087,-2.48189 0.383427,-0.3016 0.841223,-0.54837 1.017326,-0.54837 0.599838,0 1.195951,-0.96538 1.195951,-1.9368 0,-0.89872 -0.105672,-1.02873 -1.455209,-1.79036 -1.308406,-0.73842 -1.455208,-0.9102 -1.455208,-1.70285 0,-1.31821 0.978303,-1.9942097 2.606882,-1.8013297 1.0959493,0.1298 1.3568623,0.0576 2.123286,-0.58726 0.771567,-0.64923 0.855845,-0.84624 0.720354,-1.68385 -0.515486,-3.1867497 -0.51873,-3.1007997 0.134275,-3.5581797 0.878452,-0.61529 1.411921,-0.54295 2.659275,0.36063 2.0006077,1.4492297 3.5605607,0.93408 4.4065397,-1.45521 0.457301,-1.29155 0.496032,-1.3249 1.633444,-1.4068 0.96292,-0.0693 1.246862,0.0225 1.636691,0.52917 0.259409,0.33718 0.474301,0.81581 0.477537,1.06362 0.01047,0.80154 0.577348,1.73272 1.238134,2.03379 0.984764,0.44869 1.631084,0.3566 2.580689,-0.3677 1.077937,-0.82218 1.214143,-0.82363 1.214143,-0.0129 0,1.2833197 -1.471375,6.2306094 -1.853046,6.2306094 -0.122661,0 -0.5787,-0.29928 -1.013419,-0.66507 -2.453868,-2.0647997 -6.401538,-1.9286597 -9.018063,0.31099 -1.6045277,1.37341 -2.2511067,2.76704 -2.2511067,4.852 0,2.03962 0.676715,3.55176 2.0964497,4.68457 0.509668,0.40666 0.926673,0.87759 0.926677,1.04651 9e-6,0.32327 -1.314877,1.01788 -3.6425317,1.92421 -1.393581,0.54263 -1.393581,0.54263 -1.223766,-0.13396 z"
       id="path2" />
  </g>
</svg>
