<svg xmlns="http://www.w3.org/2000/svg" width="600" height="200" viewBox="0 0 600 200">
  <!-- Gear -->
  <g transform="translate(80,100) scale(1.5)">
    <circle r="20" fill="white"/>
    <path d="M30 0 a30,30 0 1,0 -60,0 a30,30 0 1,0 60,0 M-15 -28 L-8 -25 A25 25 0 0 1 8 -25 L15 -28 L20 -20 L16 -15 A25 25 0 0 1 20 -5 L28 0 L20 5 A25 25 0 0 1 16 15 L20 20 L15 28 L8 25 A25 25 0 0 1 -8 25 L-15 28 L-20 20 L-16 15 A25 25 0 0 1 -20 5 L-28 0 L-20 -5 A25 25 0 0 1 -16 -15 L-20 -20 Z" fill="#222"/>
  </g>

  <!-- Green swoosh -->
  <path d="M40,140 Q70,80 110,60 Q60,100 40,140 Z" fill="#0f4d27"/>

  <!-- Text -->
  <text x="160" y="105" font-family="Georgia, serif" font-size="32" fill="black" letter-spacing="2">
    Dobbin IP Law
  </text>
</svg>