<?xml version="1.0" encoding="UTF-8" standalone="no"?>
<svg xmlns="http://www.w3.org/2000/svg" viewBox="0 0 120 100" width="120" height="100">
  <!-- Gear element - outer shape -->
  <path d="M50,10c-22,0-40,18-40,40s18,40,40,40s40-18,40-40S72,10,50,10z M82,61
    c-0.5,2-1.3,4-2.2,5.8l7.3,10.2l-9.8,9.8l-10.2-7.3c-1.9,0.9-3.9,1.7-6,2.2L57.6,95H40.6l-3.7-13.3
    c-2.1-0.5-4.1-1.3-6-2.2l-10.2,7.3l-9.8-9.8l7.3-10.2c-0.9-1.9-1.7-3.9-2.2-6L3,57.6V40.6l13.3-3.7
    c0.5-2.1,1.3-4.1,2.2-6l-7.3-10.2l9.8-9.8l10.2,7.3c1.9-0.9,3.9-1.7,6-2.2L40.6,3h17l3.7,13.3
    c2,0.5,4,1.3,5.8,2.2l10.2-7.3l9.8,9.8l-7.3,10.2c0.9,1.9,1.7,3.9,2.2,6L95,40.6v17L82,61z" 
    fill="#333333"/>
  
  <!-- Center gear part -->
  <circle cx="50" cy="50" r="20" fill="#333333"/>
  
  <!-- Green accent/leaf part -->
  <path d="M54,20c-10.5,0-19,8.5-19,19c0,10.5,8.5,19,19,19c10.5,0,19-8.5,19-19C73,28.5,64.5,20,54,20z" fill="#009245"/>
  
  <!-- Cut out a portion to create the leaf-like accent effect -->
  <path d="M44,28.5c-5,5-7,11.5-5.5,17.5c1.5,6,6.5,11,13.5,13c7,2,15,0,20-5c5-5,7-11.5,5.5-17.5c-1.5-6-6.5-11-13.5-13C57,21.5,49,23.5,44,28.5z" fill="#009245"/>
  
  <!-- Add highlight to the green accent -->
  <path d="M67,34c-3-3-7-5-11.5-5c-9,0-16.5,7.5-16.5,16.5c0,4.5,2,8.5,5,11.5" fill="none" stroke="#00cc63" stroke-width="1"/>
</svg>